
            <svg xmlns="http://www.w3.org/2000/svg">
                <filter id="grayscale">
                    <feColorMatrix type="saturate" values="0"/>
                </filter>
                <g filter="url(#grayscale)">
                    <svg xmlns="http://www.w3.org/2000/svg" viewBox="19.99999999999997 129.97024581780875 443.92814207162246 315.0595083643825"> <g transform="rotate(0 147.67812142007602 287.5)"><svg xmlns="http://www.w3.org/2000/svg" xmlns:xlink="http://www.w3.org/1999/xlink" version="1.1" id="Layer_4" x="89.99999999999997" y="199.97024581780875" viewBox="237.8000030517578 102 524.60009765625 796.1000366210938" xml:space="preserve" height="175.0595083643825" width="115.35624284015209" preserveAspectRatio="xMinYMin" enable-background="new 0 0 1000 1000" style="overflow: visible;"><path id="XMLID_1_" class="st0" d="M380,661.6c0,0,60.5-9.8,109,21.5s98,44,98,44l-84.5,158l-14-3.5l-112-217.5L380,661.6z" style="fill: #168A53; fill-opacity: 1;"></path><path id="XMLID_29_" class="st1" d="M408.5,722.6c0,0,50.8,2.8,78,27.5s73,32,73,32l27-48.5c0,0-33.5-13-53-22.5s-71-40.5-71-40.5   s-77.3-11.5-78.5-9s3,27.5,3,27.5L408.5,722.6z" style="fill: #62D49F; fill-opacity: 1;"></path><path id="XMLID_31_" class="st2" d="M424.5,621.1c0,0,18.3,2.8,15.5-9s-14.5-36.5-14.5-36.5l21.5-13.5c0,0,103.5,0.8,151-36.5   s107.5-104.2,141.5-95c0,0,2,27-7,43s-143,255-143,255s-42.8-7.5-60.5-20s-70-40.5-70-40.5l-4.5-9l7-17l-12-2.5l-14.5-8   L424.5,621.1z" style="fill: #FD964B; fill-opacity: 1;"></path><path id="XMLID_32_" class="st3" d="M435.5,593.1c0,0,81.8,12.6,166.7-26.4c6.8-3.1,13.5,4.4,9.7,10.9L534,708.6l34.5,16.5l21,3.5   l152-274l-2-24c0,0-32.3-0.8-48,12.5s-74.5,76.7-100.5,88s-83,27-83,27l-59,7.5l-23.5,10L435.5,593.1z" style="fill: #FEBB8A; fill-opacity: 1;"></path><circle id="XMLID_33_" class="st0" cx="500.4" cy="328.7" r="94.6" style="fill: #F85D5D; fill-opacity: 1;"></circle><path id="XMLID_30_" class="st4" d="M262,411.6c0,0,99,0.5,127.7-10c0,0,66.8,68.5,90.7,77.3c23.8,8.8,115.3,46,115.3,46    S483.2,564.1,463,564.6s-29-7-29-7l-11.7-26.3l13-5.7l-12.3-45L398,515l-5.7,7.3l11.3,6.3l-22,26.3l-8-3l-7.7-14.3l-5.7-9.3    l-3.7-31.3l-5.3,17.3l-6,12.7L333,544.6l-19.7,4.7C313.3,549.3,257,456.6,262,411.6z" style="fill: #25A1B0; fill-opacity: 1;"></path><path id="XMLID_34_" class="st4" d="M445.3,445.6c0,0,111.8-55,136.3-77.7c24.5-22.7,92.3-85.3,92.3-85.3l69.7,22    c0,0,20.5,91.2-3.3,119.7c0,0-34.8,11-52.3,22.3s-55.5,61.2-69.7,68.3c-14.2,7.2-33.3,7.7-33.3,7.7S463.7,478,445.3,445.6z" style="fill: #25A1B0; fill-opacity: 1;"></path><path id="XMLID_35_" class="st5" d="M260,446.6c0,0,71.7,5.4,112.2-6.4c7-2,14.6,0,19.7,5.3C412,467,468,519.3,555,544.6l43-19    c0,0-127.5-34.7-186-102.5l-19.5-21.5c0,0-58.5,7-87,9.5s-49.5,2.5-49.5,2.5L260,446.6z" style="fill: #75DFEE; fill-opacity: 1;"></path><path id="XMLID_36_" class="st5" d="M448.5,442.1c0,0,143.5-71.5,225.5-159.5l35.5,8l36,19l4.5,33.5l-49.9-20.5    c-5.2-2.1-11.2-1.1-15.4,2.7C659.2,348.6,564.3,430.7,464,467.6L448.5,442.1z" style="fill: #75DFEE; fill-opacity: 1;"></path><path id="XMLID_40_" class="st6" d="M261,287.1c0,0,47.5,0.8,69.5,33l21.5,0.5c0,0,10-63.3,75-60c0,0-53.3,70.8,0,125l55,38    l-41,20l-48-40c0,0-114.5,19.3-137,10C256,413.6,229,342.4,261,287.1z" style="fill: #FFFFFF; fill-opacity: 1;"></path><path id="XMLID_37_" class="st6" d="M556,245.1l34-24c0,0-15.8-49.8,40-70.5c0,0,81.3,48,110,143l-1.5,7l-62-19.5l-72.5,66    l-10,0.5C594,347.6,602.3,290.9,556,245.1z" style="fill: #FFFFFF; fill-opacity: 1;"></path><path id="XMLID_41_" class="st7" d="M261,285.1c0,0,53.3,7.8,69.5,35l21.5,0.5c0,0,12-60.5,75-60l52-29l40.5,1.5l32,16l22.5-17.5   l17.5-7.5l-3-25.5l7.5-18l21-25.5l13-8c0,0-84-56.3-180-32.5S293.5,219.1,293.5,219.1L264,271.6L261,285.1z" style="fill: #D8B9F7; fill-opacity: 1;"></path><polygon id="XMLID_42_" class="st8" points="334.5,546.9 341,533.1 350.8,515.1 355.8,500.4 359,521.9 362,531.9 373.7,552    381.5,553.6 400.3,538.1 403.7,528.6 393.8,519.9 421.5,479.4 427.3,492.6 432.8,525.1 423.8,529.6 427.3,542.9 438.5,568.9    428.3,577.9 440.3,609.1 430.3,622.6 442.3,636.1 461.5,642.1 450,663.6 393.3,660.4 375,659.9 330,577.1  " style="fill: #168A53; fill-opacity: 1;"></polygon><polygon id="XMLID_43_" class="st9" points="358.5,517.6 356.5,554.1 351.5,555.6 355.3,589.1 367,592.9 377,578.6 375.8,556.6     373,547.4 368.8,539.6 362,531.9   " style="fill: #62D49F; fill-opacity: 1;"></polygon><polygon id="XMLID_44_" class="st9" points="420,486.9 414,525.4 413.8,533.4 413,571.4 409,573.9 414,609.1 411.3,616.6     410.5,654.9 440.8,661.9 456.8,649.4 460,642.1 444.3,635.6 431.5,623.6 439.8,613.4 430.5,582.9 434.8,569.4 431,551.9     422.3,531.3 433.5,526.4 434,521.4 425.3,496.6 421.8,486.4   " style="fill: #62D49F; fill-opacity: 1;"></polygon><path id="XMLID_19_" class="st10" d="M757.9,316.7c-1.2-6.8-2.7-13.4-4.5-20c-11.7-44.2-34.9-84.7-68.1-117.9   C635.9,129.2,570,102,500,102s-135.9,27.3-185.4,76.8c-49.5,49.5-76.8,115.4-76.8,185.4c0,13.1,1,26.1,2.9,39   c0.9,6.2,2,12.3,3.4,18.4c1.8,8.1,4,16.1,6.6,24c10.4,31.9,26.7,62.3,43.5,92.2c3.9,6.9,7.8,13.7,11.7,20.5   c5.4,9.4,10.7,18.8,15.7,28.2c12,22.3,24.1,44.5,36.1,66.8c3.1,5.7,6.2,11.3,9.2,17c8.4,15.5,16.7,30.9,25.1,46.4   c21.5,39.7,42.9,79.3,64.3,119c9.7,17.9,19.4,35.8,29,53.7c0,0,0,0,0,0c2.9,5.4,8.5,8.7,14.7,8.7c6.1,0,11.7-3.3,14.7-8.7   c8.9-16.4,17.8-32.9,26.7-49.3c17.9-33.2,35.8-66.3,53.8-99.4c2.7-4.9,5.3-9.8,8-14.7c0.3-0.6,0.7-1.3,1-1.9   c22.8-42.2,45.6-84.4,68.5-126.6c28.7-53.2,63.8-106.4,80.2-164.9c1.8-6.2,3.3-12.5,4.6-18.8c2-9.9,3.5-20,4.2-30.2   c0.5-6.4,0.7-12.8,0.7-19.2C762.2,348.1,760.8,332.2,757.9,316.7z M692.7,226c0.8-0.8,1.6-1.5,2.3-2.2c0.4-0.4,0.8-0.6,1.1-0.9   c0.4-0.3,0.7-0.6,1.1-0.8c0,0,0,0,0,0c13.4,18.5,24.2,39,32,60.9c1,2.7-1.7,5.4-4.4,4.4c-14.8-5.1-27.2-10-35.3-13.2   c-10.5-4.3-22.5-1.3-29.9,7.3c-16.4,19.3-35.3,37.9-56.2,55.5c0.4-3.4,0.6-6.9,0.6-10.3c0.3-32.8-14.8-62.3-38.6-81.7   c3-3.4,7.4-7.5,13.2-11c14.2-8.5,30.7-9.6,49.3-3.4c-13.4,12.4-14.7,30.1-13.3,43.1c-0.4,0.5-0.8,0.9-1.1,1.4   c-0.4,0.5-0.8,1.1-1.2,1.6c-0.2,0.2-0.3,0.5-0.5,0.7l-0.3,0.4l-0.2,0.4c-0.6,1-1.1,2-1.4,2.9c-0.3,0.9-0.5,1.7-0.7,2.4   c-0.1,0.7-0.2,1.3-0.2,1.7c0,0.2,0,0.4,0,0.5c0,0.1,0,0.2,0,0.2l0,0.3c0.1,0.7,0.4,1.3,1,1.8c1.2,1,2.9,0.8,3.9-0.3   c0,0,0,0,0.1-0.1c0.1,0,0.2-0.1,0.3-0.2c0.2-0.2,0.5-0.5,0.9-0.9c0.4-0.4,0.8-0.9,1.3-1.5c0.5-0.6,1-1.2,1.6-1.9   c0.3-0.4,0.6-0.8,1-1.1c0.3-0.4,0.6-0.7,1-1.1c0.7-0.8,1.5-1.5,2.4-2.2c0.9-0.7,1.8-1.4,2.7-2c1-0.7,2-1.2,3-1.8   c1-0.5,2.1-1,3.2-1.4c0.5-0.2,1.1-0.4,1.6-0.6c0.5-0.2,1.1-0.4,1.6-0.5c1.1-0.3,2.1-0.5,3.2-0.7c1-0.2,2-0.4,2.9-0.5   c1.8-0.3,3.5-0.7,4.6-0.9c1.2-0.3,1.8-0.5,1.8-0.5l0.1,0c0.6-0.2,1.2-0.6,1.5-1.2c0.7-1.3,0.3-2.9-1-3.7c0,0-0.2-0.1-0.5-0.3   c-0.3-0.2-0.8-0.4-1.4-0.6c-1.3-0.5-3.1-1-5.4-1.2c-1.2-0.1-2.4-0.1-3.7,0c-1.3,0.1-2.7,0.3-4.2,0.6c-0.7,0.1-1.5,0.3-2.2,0.5   c-0.7,0.2-1.5,0.4-2.2,0.7c-1,0.3-2,0.8-2.9,1.2c0-9.9,2.6-21.2,12.2-28.7c14.8-11.5,30.5-10.2,38.9-8.2c-0.1,0.2-0.2,0.4-0.3,0.7   c-0.6,1.4-1.3,2.8-1.8,4.2c-1,2.8-1.7,5.4-2,7.7c-0.3,2.3-0.4,4.2-0.4,5.6c0,1.4,0.1,2.1,0.1,2.1c0.1,0.7,0.5,1.4,1.1,1.9   c1.3,0.9,3.1,0.7,4-0.6l0,0c0,0,0.5-0.6,1.1-1.7c0.7-1.1,1.6-2.6,2.6-4.4c1-1.8,2.1-3.8,3.3-6.1c0.6-1.1,1.2-2.2,1.9-3.3   c0.7-1.1,1.4-2.2,2.1-3.2c0.8-1,1.5-2.1,2.3-3C691.1,227.6,691.9,226.8,692.7,226z M586,325.6c0,9-1.4,17.9-4.1,26.4   c-0.6,1.8-1.6,3.3-3.1,4.4c0,0,0,0,0,0c-0.6,0.4-1.2,0.9-1.8,1.3c-1.4,1-2.7,2-4.1,3c-0.3,0.2-0.6,0.4-0.9,0.7   c-1.5,1.1-3.1,2.2-4.7,3.3c-0.3,0.2-0.6,0.4-0.9,0.7c-1.2,0.9-2.5,1.7-3.7,2.6c-2.5,1.7-5,3.4-7.5,5.1c-1.4,0.9-2.8,1.9-4.2,2.8   c-8.1,5.4-16.5,10.6-25.1,15.7c-2,1.2-4,2.3-6,3.5c-3.8,2.2-7.7,4.4-11.6,6.6c-1,0.5-1.9,1.1-2.9,1.6c-1.3,0.7-2.5,1.4-3.8,2.1   c-0.7,0.4-1.3,0.7-2.1,1.1c-1,0.5-1.9,1-2.9,1.6c-1.4,0.8-2.8,1.5-4.3,2.3c-0.5,0.3-1,0.5-1.6,0.8h0c-43.3-4.6-76.8-41.7-76.8-85.5   c0-47.4,38.6-86,86-86S586,278.2,586,325.6z M690,212.5c-0.3,0.2-0.6,0.4-0.9,0.7c-0.6,0.4-1.2,0.8-1.7,1.3   c-0.6,0.5-1.2,0.9-1.7,1.5c-0.5,0.5-1.1,1.1-1.7,1.6c-0.5,0.5-0.9,1-1.4,1.5c-7.8-2.4-25.6-5.9-43.8,3.8   c-17.8-7.4-32.7-8.3-44.6-6.2c-4.5-35.3,19.7-52.9,32.9-59.8C651.2,171.7,672.4,190.6,690,212.5z M500,121   c42.1,0,81.7,10.7,116.2,29.6c-4.1,2.6-8.7,5.9-13,10.1c-11.6,11-23.9,30-19.7,58.9c-4,1.4-7.5,3.2-10.5,5   c-7.4,4.4-12.8,9.6-16.5,13.9c-15.6-10.2-34-16.3-53.8-16.8c-30.8-0.8-58.7,11.9-78.2,32.5c-6.6-0.3-16.2,0.2-26.6,3.7   c-16.4,5.5-38,19.7-50,55.8c-2.9-0.4-5.9-0.6-9-0.4c-1.7,0.1-3.4,0.3-5.1,0.6c-0.4,0.1-0.8,0.2-1.3,0.3   c-14.8-21.4-39.5-29.1-61.7-31.3C304.4,188.6,394.4,121,500,121z M259.6,394.5c-1.7-10.2-2.8-20.5-2.8-30.3   c0-24.5,3.7-48.3,10.5-70.6c19.4,1.5,41.3,7.5,54.6,24.7c-0.1,0-0.2,0.1-0.3,0.2l-1.1,0.6l-0.3,0.2l-0.1,0l-0.3,0.2l-0.1,0.1   l-0.4,0.3c-0.6,0.4-1.2,0.8-1.8,1.2c-0.7,0.5-1.4,1.1-2.1,1.7c-0.7,0.5-1.3,1.1-1.9,1.7c-0.6,0.6-1.2,1.1-1.7,1.7   c-2.3,2.3-4,5-5.6,7.5c-1.5,2.5-2.5,5.1-3.4,7.5c-0.8,2.4-1.4,4.6-1.7,6.6c-0.2,1-0.3,1.9-0.5,2.8c-0.1,0.9-0.2,1.6-0.3,2.4   c0,0.1,0,0.1,0,0.2c-0.4,0.2-0.8,0.3-1.2,0.5c-2.5,1.1-4.8,2.4-6.8,3.8c-0.5,0.4-1,0.8-1.5,1.1c-0.5,0.4-1,0.8-1.4,1.2   c-0.4,0.4-0.9,0.8-1.3,1.2c-0.4,0.4-0.9,0.9-1.3,1.3c-1.5,1.5-2.9,3.2-3.9,4.8c-1.1,1.6-1.9,3.2-2.5,4.7c-0.6,1.5-1,2.8-1.3,3.8   c-0.3,1.1-0.4,2-0.5,2.6c-0.1,0.6-0.1,1-0.1,1c-0.6,1.7,0.3,3.5,2,4c1.7,0.6,3.5-0.3,4-2c0,0,0.2-0.1,0.5-0.5   c0.3-0.4,0.8-0.9,1.4-1.6c0.6-0.7,1.3-1.5,2.2-2.5c0.8-0.9,1.8-2,2.8-3.1c1-1.1,2.1-2.2,3.5-3.4c0.3-0.2,0.6-0.5,0.9-0.7   c0.3-0.3,0.7-0.5,1-0.8c0.3-0.3,0.7-0.5,1.1-0.7c0.4-0.2,0.7-0.5,1.1-0.7c0.8-0.4,1.5-0.9,2.4-1.2c0.8-0.4,1.7-0.7,2.5-1   c1.7-0.5,3.5-1.1,5.4-1.3c0.5-0.1,0.9-0.2,1.4-0.2l1.4-0.1c0.9-0.1,1.9,0,2.8-0.1c1.9,0,3.8,0.2,5.6,0.5c0.9,0.1,1.8,0.3,2.7,0.5   c0.5,0.1,0.9,0.2,1.3,0.3c0.4,0.1,0.9,0.2,1.3,0.3c0.9,0.2,1.7,0.4,2.5,0.6c0.8,0.2,1.6,0.5,2.4,0.7c3.1,0.8,5.8,1.4,7.8,1.8   c1,0.2,1.8,0.3,2.3,0.3c0.6,0,0.9,0.1,0.9,0.1l0,0c0.7,0,1.4-0.2,2.1-0.6c1.5-1.1,1.8-3.1,0.8-4.6c0,0-0.8-1.1-2.3-2.5   c-1.6-1.5-4-3.4-7.4-5c-0.4-0.2-0.8-0.4-1.3-0.6c-0.4-0.2-0.9-0.4-1.3-0.6c-1-0.4-2-0.7-3-1c-0.5-0.2-1-0.3-1.5-0.5   c-0.5-0.1-1.1-0.3-1.6-0.4c-1.1-0.3-2.2-0.6-3.4-0.8c-1.2-0.2-2.4-0.5-3.7-0.6c-0.6-0.1-1.3-0.1-1.9-0.2c-0.6-0.1-1.3-0.1-1.9-0.1   c-0.8,0-1.6,0-2.4,0c0-0.1,0.1-0.2,0.1-0.3c0.2-0.8,0.4-1.6,0.7-2.4c0.3-0.8,0.6-1.7,0.9-2.6c0.7-1.7,1.6-3.6,2.7-5.3   c1.1-1.8,2.4-3.6,4-5.2c0.4-0.4,0.8-0.8,1.2-1.2c0.4-0.4,0.9-0.8,1.3-1.1c0.4-0.3,0.8-0.7,1.2-1c0.6-0.4,1.2-0.8,1.8-1.2l0.4-0.3   l0,0l0.2-0.1l0.8-0.4c0.5-0.3,1-0.6,1.6-0.9l1.6-0.8c0.5-0.3,1.1-0.4,1.7-0.6c1.1-0.5,2.3-0.7,3.4-1c1.2-0.2,2.4-0.5,3.6-0.5   c2.4-0.2,4.8-0.2,7.2,0.1c2.4,0.3,4.7,0.7,6.9,1.3c2.2,0.6,4.3,1.3,6.1,2c1.9,0.8,3.6,1.6,5.2,2.1c1.6,0.6,3.1,0.9,4.3,1.2   s2.3,0.4,3.1,0.4c0.4,0,0.7,0,0.9,0c0.2,0,0.3,0,0.3,0l0.1,0c0.2,0,0.4,0,0.5-0.1c1.3-0.3,2.1-1.7,1.8-3c0,0,0-0.1-0.1-0.3   c-0.1-0.2-0.2-0.5-0.4-0.9c-0.3-0.8-1-1.8-1.9-2.9c-0.9-1.1-2.1-2.4-3.7-3.5c-0.8-0.6-1.7-1.1-2.6-1.7c-1.1-0.6-1.8-1-3-1.5   c-1.9-0.9-3.8-1.7-6-2.5c13.7-40.2,39.8-49.5,56.8-51c-12.2,17-19.3,37.9-19.3,60.4c0,26.4,9.9,51.5,27.8,70.8   c11.6,12.5,25.9,21.8,41.6,27.3c-6.3,3-12.5,5.8-18.8,8.6c-3.8,1.7-8.2,0.8-11.2-2.1c-9.8-9.6-17.3-18.1-22.1-24   c-8.4-10.2-21.7-14.7-34.6-11.6c-37.5,8.8-76.2,10.7-107.1,10.1C265.6,404.5,260.6,400.3,259.6,394.5z M319.7,538.7   c-2.7-2.2-5-5-6.7-8.1L300.2,507c0,0-19.2-34.8-32.1-76.9c-1.1-3.6,1.7-7.3,5.5-7.2c31.6,0.5,70.6-1.6,109.1-10.7   c6.2-1.5,12.6,0.7,16.6,5.5c6.7,8.1,17.9,20.7,33.2,34.5c29.1,26.3,75.5,59.4,138.4,76.3c-31.7,14-70.9,23.3-121.7,24.6   c-5.8,0.1-11.2-2.8-14.2-7.7c-3.6-5.8-6.3-11.1-6.3-11.1c8.2,2.2,19.3,1,10.7-15c-8.7-16-10.7-48.3-12.7-56.7   c-1.1-4.6-3.1-4.9-4.7-4.3c-1.4,0.5-2.3,1.9-2.6,3.4c-6.3,34.7-35.1,53.2-35.7,60.3c-0.7,7.2,12.7,7.7,12.7,7.7   c-0.2,4.6-9.6,13.8-15.3,18.9c-1.8,1.6-4.7,0.8-5.4-1.5c-2.5-8.3-8.4-13.7-10.9-18.7c-3-6-0.3-28.3-6.3-34.7   c-6-6.3-8.7,10.7-8.7,10.7c-1.4,12.7-8.5,24.7-13.7,32.1C332.2,541.8,324.7,542.8,319.7,538.7z M426.9,516.1c2.3,3.8,1.6,7.8-2,8   c-2.3,0.2-5.2-0.3-7.1-0.6c-1.3-0.2-2.3-1.1-2.8-2.4c-0.8-2.2-1.6-6-0.8-10.8c0,0-4.8,1.5-6,11.2l-4.2-2.1c-1.2-0.6-1.8-2-1.4-3.3   c1.2-3.6,4-10.8,8.7-15.2c4.1-3.8,6.5-7.5,7.7-9.8c0.4-0.7,1.5-0.6,1.7,0.3c0.3,1.3,0.5,3,0.4,4.8   C420.9,500.1,424.6,512.3,426.9,516.1z M415,538.1c4.8,2.9,11.7,21.6,12.6,24.8c0.9,3.1-6.6,9.6-12.1,4.5c-5.5-5.1-5-17.3-5-17.3   s-5.2,5.8-7,10.5c-1.5,3.8-8.9,3.1-11.5,2.7c-0.4-0.1-0.6-0.6-0.4-0.9c1.6-2.1,6-8.2,7.4-13.5C400.7,542.3,410.3,535.2,415,538.1z    M395,578.5c6.1,0,18.3,0.3,23.2,4c5.4,4.1,14,15.4,13.3,23.1c-0.2,2.3-1.8,4.3-4.1,4.9c-2.3,0.7-5.7,1.3-7.3-0.3   c-2.6-2.5-5.1-16.6-9.4-17.6c0,0-3,5.6-3.7,10.7c-0.2,1.2-0.8,2.2-1.8,2.8c-2.7,1.5-8.6,3.7-17.2,0.6c-1.5-0.5-2.6-1.7-3.2-3.2   c-1.7-4.5-4.2-14.6,3.1-22.1C389.8,579.6,392.3,578.6,395,578.5z M362.3,587.6c-6.1-0.6-8.5-13.3-8.5-13.3s-4.4,5.8-4.4,11.6   c0,1.1-0.9,1.9-1.9,1.9c-2.1,0-4-1.2-5-3l-3.3-6c-1.3-2.4-1.1-5.3,0.5-7.5c1.2-1.7,2.6-4,3.4-6.7c0.4-1.3,1.3-2.3,2.5-2.7   c3.2-1.2,9.3-3.1,12-0.7c3.6,3.3,5.8,12.1,7.4,14.8C366.5,578.6,368.3,588.2,362.3,587.6z M365.5,550.9c-2.3,0-9.4-0.4-13.3-0.6   c-1.3-0.1-2.2-1.3-2-2.5c0.5-2.9,1-7.7,0.2-11.4c0,0-3.1,7.1-5.9,10.7c-0.6,0.7-1.8,0.7-2.2-0.1l-1-1.6c-0.7-1.1-0.6-2.5,0.1-3.5   c3.2-4.7,11.7-18.5,13.6-34.1c0-0.1,0.2-0.1,0.2,0c0.1,5.6,0.6,22,3,26.1c2.8,5,10.8,11.4,10.9,13.4   C369.1,549.2,368.7,550.8,365.5,550.9z M375.5,646.1l-2.9-5.4c-1.1-2-0.9-4.3,0.5-6.1c1.8-2.4,4.5-5.4,7.7-7.7c0,0,4,5.5,4.4,11.6   c0,0,1.6-4.2,1.8-7.6c0.2-3.4,5.1-11.4,11.2-11.3c6.1,0.1,20.4-0.3,30.3,11.3c9.8,11.6,18.1,13.1,21.4,12.6c0,0,0.6,9.7-9.1,11h0   c-4.8-1-9.7-1.7-14.7-2.4c-1.1-0.1-2-1-2.2-2.2c-0.6-5.4-2-14.7-4.5-17.5c0,0-2.7,9.3-6.6,15.6c-1,1.6-2.8,2.6-4.7,2.5   c-5.5-0.3-11.1-0.3-16.8-0.2c-2.6,0.1-5.1,0.1-7.6,0.3C380.2,650.9,377.1,649.1,375.5,646.1z M572.5,742.3l-68.4,126.5   c-1.8,3.3-6.5,3.3-8.2,0L391.1,675c-1.6-3,0.5-6.5,3.9-6.6c30-0.2,66.6,5,96.3,26c28.3,20,54,32.2,77.9,39.6   C572.7,735.2,574.3,739.1,572.5,742.3z M728,444.7c-10.1,29.5-21.6,50.1-21.6,50.1L590.1,709.8c-3.3,6-10.3,8.9-16.8,6.8   c-22-7-45.5-18.3-71.6-36.8c-10.1-7.1-21.3-13-33.7-17.6c-1.9-0.7-2.6-3.1-1.3-4.7c2.6-3.2,4.2-7.3,4.6-12.2   c1-10.8-8.8-11.2-19-11.3c-10.2-0.2-14-9-14-9c9.7-0.3,23-12,14.7-19.3s-16.3-25-16.3-25c10,0.8,14.9-1.8,16.7-5.5   c1.2-2.5,3.9-4,6.6-4.2c113.7-5.2,170-50.1,216.9-98c14.1-14.3,29.7-25.1,46.8-32.2C726.3,439.6,728.9,442.1,728,444.7z    M739.1,403.8c-1.6,8.2-7.5,14.8-15.3,17.6c-0.8,0.3-1.7,0.6-2.5,0.9c-7.5,2.9-15.3,5-23.3,6.1c-1.3,0.2-2.6,0.4-3.8,0.7   c-4,1-6.6,0.1-8.2-1c-1-0.7-0.8-2.2,0.4-2.5c3.7-1,10.1-4.1,9.3-12.5c0,0-1.8-4-8.5-4c-5.5,0-14.2-3.8-18.3-7.1   c-1.1-0.9-1-2.6,0.2-3.3c2.3-1.4,5.6-4.1,5.3-7.8c-0.5-5.8-15-47.4-24.8-47.3s-2.3,28.8-7,39c-3.6,7.8-9.3,16.9-9,24.6   c0.2,4.6,4,8.4,8.6,8.3c0,0,0.1,0,0.1,0c2-0.1,3.6,1.4,3.6,3.4c0,4.3-1.3,11.6-8.6,20.4c-1.4,1.7-4.2,0.7-4.2-1.5   c0-1.1,0.2-2.3,0.7-3.7c1.9-5.4,1.6-9.1-3.3-15.8c-3.3-4.5-5.2-15.4-9-20.8c-2.2-3.1-7-1.8-7.5,1.9c-1.4,12.4-6.1,47.5-16.5,61.3   c0,0-7.7,7.4,4.4,10c2,0.4,3.2,2.5,2.6,4.4c-1.2,3.9-4.2,10.3-11.4,16.5c-1.4,1.2-2.4,2.8-2.8,4.5c-0.5,2.3-0.1,5.2,4.2,6.3   c2.2,0.6,3.4,3,2.4,5c0,0,0,0.1-0.1,0.1c-1.7,3.5-5.3,5.7-9.1,5.6c-2.7-0.1-5.4-0.4-8.1-1.1c-51.1-12.9-91.1-37.3-119.3-59.8   c-2.4-1.9-1.9-5.8,0.9-7.1c11.1-5,22.1-10.3,33-15.9h0l1.1-0.6l1.1-0.6c35.2-18.2,67.9-38.6,97.1-60.8l2-1.5v0   c29.5-22.6,55.5-47.1,77.5-72.8c2.3-2.7,6.1-3.7,9.4-2.3c9.5,3.9,24.9,9.8,43.1,16c7.2,2.4,12.5,8.6,13.8,16.1   c2.3,13.4,3.5,27.2,3.5,41.3C743.2,377.5,741.6,390.9,739.1,403.8z" style="fill: #000000; fill-opacity: 1;"></path></svg></g> <g transform="rotate(0 316.3281435975013 320.0642834192846)"><svg y="314.8092833048437" viewBox="1.3899999856948853 4.880000114440918 151.9199981689453 10.510000228881836" x="240.36814451302865" height="10.510000228881836" width="151.9199981689453" style="overflow: visible;"><g fill="#000000" fill-opacity="1" style=""><path d="M2.67 15.20L1.39 15.20L1.39 5.07L4.56 5.07Q5.59 5.07 6.40 5.34Q7.20 5.61 7.66 6.23Q8.11 6.86 8.11 7.91L8.11 7.91Q8.11 9.09 7.49 9.80Q6.88 10.52 5.83 10.79L5.83 10.79L8.41 15.20L6.95 15.20L4.51 10.92L2.67 10.92L2.67 15.20ZM2.67 6.10L2.67 9.87L4.37 9.87Q5.56 9.87 6.20 9.39Q6.83 8.90 6.83 7.91L6.83 7.91Q6.83 6.91 6.20 6.51Q5.56 6.10 4.37 6.10L4.37 6.10L2.67 6.10ZM11.00 15.20L9.72 15.20L9.72 5.07L11.00 5.07L11.00 15.20ZM16.13 15.39L16.13 15.39Q15.07 15.39 14.15 14.98Q13.24 14.57 12.58 13.89L12.58 13.89L13.35 13.00Q13.89 13.57 14.63 13.91Q15.36 14.26 16.15 14.26L16.15 14.26Q17.15 14.26 17.71 13.81Q18.26 13.35 18.26 12.61L18.26 12.61Q18.26 12.08 18.04 11.77Q17.82 11.47 17.44 11.25Q17.06 11.03 16.58 10.82L16.58 10.82L15.13 10.18Q14.65 9.98 14.18 9.66Q13.71 9.33 13.39 8.82Q13.07 8.31 13.07 7.57L13.07 7.57Q13.07 6.80 13.48 6.19Q13.89 5.58 14.62 5.23Q15.34 4.88 16.26 4.88L16.26 4.88Q17.17 4.88 17.94 5.23Q18.71 5.58 19.25 6.13L19.25 6.13L18.56 6.97Q18.09 6.52 17.53 6.27Q16.97 6.01 16.26 6.01L16.26 6.01Q15.41 6.01 14.89 6.41Q14.37 6.81 14.37 7.49L14.37 7.49Q14.37 7.97 14.63 8.29Q14.88 8.61 15.27 8.81Q15.65 9.01 16.05 9.18L16.05 9.18L17.49 9.80Q18.08 10.04 18.55 10.39Q19.02 10.74 19.30 11.24Q19.58 11.74 19.58 12.50L19.58 12.50Q19.58 13.30 19.16 13.96Q18.74 14.62 17.97 15.00Q17.20 15.39 16.13 15.39ZM27.10 15.20L21.11 15.20L21.11 5.07L26.95 5.07L26.95 6.15L22.39 6.15L22.39 9.33L26.24 9.33L26.24 10.43L22.39 10.43L22.39 14.11L27.10 14.11L27.10 15.20ZM33.16 9.53L33.16 9.53L32.68 11.08L35.72 11.08L35.25 9.53Q34.97 8.68 34.72 7.84Q34.47 7.00 34.23 6.12L34.23 6.12L34.16 6.12Q33.93 7.00 33.69 7.84Q33.44 8.68 33.16 9.53ZM31.38 15.20L30.07 15.20L33.50 5.07L34.95 5.07L38.38 15.20L37.01 15.20L36.05 12.11L32.36 12.11L31.38 15.20ZM42.59 15.20L39.36 15.20L39.36 5.07L42.37 5.07Q43.40 5.07 44.18 5.32Q44.97 5.56 45.41 6.10Q45.85 6.64 45.85 7.54L45.85 7.54Q45.85 8.30 45.47 8.91Q45.09 9.52 44.36 9.75L44.36 9.75L44.36 9.81Q45.27 9.98 45.85 10.58Q46.43 11.19 46.43 12.24L46.43 12.24Q46.43 13.23 45.95 13.89Q45.46 14.56 44.59 14.88Q43.73 15.20 42.59 15.20L42.59 15.20ZM40.64 6.09L40.64 9.38L42.14 9.38Q43.44 9.38 44.01 8.93Q44.58 8.48 44.58 7.71L44.58 7.71Q44.58 6.83 43.98 6.46Q43.39 6.09 42.20 6.09L42.20 6.09L40.64 6.09ZM40.64 10.37L40.64 14.18L42.40 14.18Q43.71 14.18 44.44 13.70Q45.17 13.21 45.17 12.19L45.17 12.19Q45.17 11.25 44.45 10.81Q43.73 10.37 42.40 10.37L42.40 10.37L40.64 10.37ZM51.72 15.39L51.72 15.39Q50.45 15.39 49.47 14.74Q48.49 14.09 47.94 12.90Q47.39 11.71 47.39 10.09L47.39 10.09Q47.39 8.47 47.94 7.30Q48.49 6.13 49.47 5.51Q50.45 4.88 51.72 4.88L51.72 4.88Q53.00 4.88 53.97 5.51Q54.95 6.13 55.50 7.30Q56.06 8.47 56.06 10.09L56.06 10.09Q56.06 11.71 55.50 12.90Q54.95 14.09 53.97 14.74Q53.00 15.39 51.72 15.39ZM51.72 14.26L51.72 14.26Q52.63 14.26 53.30 13.74Q53.97 13.23 54.34 12.29Q54.72 11.36 54.72 10.09L54.72 10.09Q54.72 8.20 53.90 7.11Q53.08 6.01 51.72 6.01L51.72 6.01Q50.36 6.01 49.54 7.11Q48.72 8.20 48.72 10.09L48.72 10.09Q48.72 11.36 49.09 12.29Q49.46 13.23 50.14 13.74Q50.82 14.26 51.72 14.26ZM61.13 15.20L59.63 15.20L56.38 5.07L57.76 5.07L59.38 10.54Q59.66 11.43 59.87 12.21Q60.08 13.00 60.37 13.89L60.37 13.89L60.43 13.89Q60.71 13.00 60.93 12.21Q61.14 11.43 61.41 10.54L61.41 10.54L63.03 5.07L64.34 5.07L61.13 15.20ZM71.26 15.20L65.27 15.20L65.27 5.07L71.11 5.07L71.11 6.15L66.55 6.15L66.55 9.33L70.40 9.33L70.40 10.43L66.55 10.43L66.55 14.11L71.26 14.11L71.26 15.20ZM78.97 15.20L77.68 15.20L77.68 6.15L74.62 6.15L74.62 5.07L82.03 5.07L82.03 6.15L78.97 6.15L78.97 15.20ZM84.68 15.20L83.39 15.20L83.39 5.07L84.68 5.07L84.68 9.32L89.39 9.32L89.39 5.07L90.69 5.07L90.69 15.20L89.39 15.20L89.39 10.43L84.68 10.43L84.68 15.20ZM99.00 15.20L93.01 15.20L93.01 5.07L98.85 5.07L98.85 6.15L94.29 6.15L94.29 9.33L98.14 9.33L98.14 10.43L94.29 10.43L94.29 14.11L99.00 14.11L99.00 15.20ZM107.14 15.39L107.14 15.39Q105.88 15.39 104.88 14.76Q103.88 14.14 103.30 12.96Q102.72 11.79 102.72 10.14L102.72 10.14Q102.72 8.50 103.31 7.32Q103.90 6.15 104.92 5.52Q105.94 4.88 107.22 4.88L107.22 4.88Q108.15 4.88 108.86 5.26Q109.57 5.64 110.00 6.13L110.00 6.13L109.31 6.97Q108.91 6.54 108.40 6.27Q107.89 6.01 107.24 6.01L107.24 6.01Q106.28 6.01 105.56 6.51Q104.84 7.02 104.45 7.93Q104.05 8.84 104.05 10.11L104.05 10.11Q104.05 11.37 104.44 12.31Q104.83 13.24 105.53 13.75Q106.23 14.26 107.19 14.26L107.19 14.26Q107.92 14.26 108.49 13.95Q109.06 13.64 109.54 13.12L109.54 13.12L110.25 13.92Q109.65 14.62 108.89 15.00Q108.13 15.39 107.14 15.39ZM117.39 15.20L111.67 15.20L111.67 5.07L112.95 5.07L112.95 14.11L117.39 14.11L117.39 15.20ZM122.46 15.39L122.46 15.39Q121.19 15.39 120.21 14.74Q119.23 14.09 118.68 12.90Q118.13 11.71 118.13 10.09L118.13 10.09Q118.13 8.47 118.68 7.30Q119.23 6.13 120.21 5.51Q121.19 4.88 122.46 4.88L122.46 4.88Q123.74 4.88 124.71 5.51Q125.69 6.13 126.24 7.30Q126.80 8.47 126.80 10.09L126.80 10.09Q126.80 11.71 126.24 12.90Q125.69 14.09 124.71 14.74Q123.74 15.39 122.46 15.39ZM122.46 14.26L122.46 14.26Q123.37 14.26 124.04 13.74Q124.71 13.23 125.08 12.29Q125.45 11.36 125.45 10.09L125.45 10.09Q125.45 8.20 124.64 7.11Q123.82 6.01 122.46 6.01L122.46 6.01Q121.10 6.01 120.28 7.11Q119.46 8.20 119.46 10.09L119.46 10.09Q119.46 11.36 119.83 12.29Q120.20 13.23 120.88 13.74Q121.56 14.26 122.46 14.26ZM132.11 15.39L132.11 15.39Q131.08 15.39 130.25 14.97Q129.43 14.56 128.95 13.60Q128.47 12.64 128.47 11.02L128.47 11.02L128.47 5.07L129.75 5.07L129.75 11.05Q129.75 12.27 130.07 12.97Q130.38 13.67 130.92 13.97Q131.45 14.26 132.11 14.26L132.11 14.26Q132.79 14.26 133.33 13.97Q133.88 13.67 134.19 12.97Q134.51 12.27 134.51 11.05L134.51 11.05L134.51 5.07L135.75 5.07L135.75 11.02Q135.75 12.64 135.27 13.60Q134.79 14.56 133.97 14.97Q133.15 15.39 132.11 15.39ZM140.61 15.20L138.02 15.20L138.02 5.07L140.55 5.07Q142.90 5.07 144.12 6.37Q145.34 7.68 145.34 10.09L145.34 10.09Q145.34 12.52 144.13 13.86Q142.92 15.20 140.61 15.20L140.61 15.20ZM139.30 6.12L139.30 14.15L140.46 14.15Q142.24 14.15 143.12 13.08Q144.01 12.01 144.01 10.09L144.01 10.09Q144.01 8.17 143.12 7.15Q142.24 6.12 140.46 6.12L140.46 6.12L139.30 6.12ZM149.87 15.39L149.87 15.39Q148.80 15.39 147.89 14.98Q146.98 14.57 146.31 13.89L146.31 13.89L147.09 13.00Q147.63 13.57 148.36 13.91Q149.10 14.26 149.88 14.26L149.88 14.26Q150.89 14.26 151.44 13.81Q152.00 13.35 152.00 12.61L152.00 12.61Q152.00 12.08 151.78 11.77Q151.55 11.47 151.17 11.25Q150.80 11.03 150.32 10.82L150.32 10.82L148.86 10.18Q148.39 9.98 147.91 9.66Q147.44 9.33 147.13 8.82Q146.81 8.31 146.81 7.57L146.81 7.57Q146.81 6.80 147.22 6.19Q147.63 5.58 148.35 5.23Q149.08 4.88 149.99 4.88L149.99 4.88Q150.90 4.88 151.68 5.23Q152.45 5.58 152.99 6.13L152.99 6.13L152.29 6.97Q151.83 6.52 151.27 6.27Q150.70 6.01 149.99 6.01L149.99 6.01Q149.14 6.01 148.62 6.41Q148.11 6.81 148.11 7.49L148.11 7.49Q148.11 7.97 148.36 8.29Q148.62 8.61 149.00 8.81Q149.39 9.01 149.79 9.18L149.79 9.18L151.23 9.80Q151.82 10.04 152.29 10.39Q152.76 10.74 153.04 11.24Q153.31 11.74 153.31 12.50L153.31 12.50Q153.31 13.30 152.90 13.96Q152.48 14.62 151.71 15.00Q150.93 15.39 149.87 15.39Z" transform="translate(0, 0)"></path></g></svg></g> <g transform="rotate(0 317.1481432923255 275.9471445148265)"><svg y="249.68714619329333" viewBox="2.3299999237060547 19.3700008392334 153.55999755859375 52.519996643066406" x="240.36814451302865" height="52.519996643066406" width="153.55999755859375" style="overflow: visible;"><g fill="#000000" fill-opacity="1" style=""><path d="M12.77 71.89L2.33 71.89L2.33 19.37L12.77 19.37L12.77 38.14L17.73 38.14L17.73 19.37L28.17 19.37L28.17 71.89L17.73 71.89L17.73 48.07L12.77 48.07L12.77 71.89ZM62.05 71.89L51.90 71.89L51.90 19.37L62.05 19.37L62.05 71.89ZM96.23 71.89L85.78 71.89L85.78 19.37L96.17 19.37L96.17 40.40L101.06 19.37L111.63 19.37L105.75 43.42L112.85 71.89L101.96 71.89L96.23 46.46L96.23 71.89ZM155.89 71.89L134.20 71.89L134.20 19.37L155.20 19.37L155.20 29.51L144.88 29.51L144.88 39.75L154.79 39.75L154.79 49.63L144.88 49.63L144.88 61.65L155.89 61.65L155.89 71.89Z" transform="translate(0, 0)"></path></g></svg></g></svg>
                </g>
            </svg>
        