<?xml version="1.0" standalone="no"?>
<!DOCTYPE svg PUBLIC "-//W3C//DTD SVG 20010904//EN"
 "http://www.w3.org/TR/2001/REC-SVG-20010904/DTD/svg10.dtd">
<svg version="1.0" xmlns="http://www.w3.org/2000/svg"
 width="512.000000pt" height="512.000000pt" viewBox="0 0 512.000000 512.000000"
 preserveAspectRatio="xMidYMid meet">
<metadata>
Created by potrace 1.14, written by Peter Selinger 2001-2017
</metadata>
<g transform="translate(0.000000,512.000000) scale(0.100000,-0.100000)"
fill="#000000" stroke="none">
<path d="M2409 4976 c-2 -2 -29 -6 -59 -10 -323 -36 -653 -196 -903 -439 -376
-364 -546 -884 -461 -1407 8 -50 43 -189 56 -225 55 -153 74 -198 146 -340 49
-98 181 -338 219 -397 12 -21 23 -40 23 -42 0 -3 15 -31 34 -63 18 -32 57
-103 86 -158 29 -55 94 -176 145 -270 51 -93 114 -210 140 -260 26 -49 51 -94
55 -100 4 -5 33 -59 65 -120 32 -60 91 -168 130 -240 39 -71 78 -146 88 -165
10 -19 28 -53 40 -75 33 -58 93 -169 182 -335 42 -80 85 -153 95 -163 22 -24
88 -32 119 -15 24 13 53 59 156 253 32 61 79 148 105 195 26 47 69 126 95 175
26 50 59 110 73 135 52 95 95 175 251 465 89 165 166 307 171 315 5 8 28 51
51 94 34 66 160 293 316 571 149 266 253 518 294 714 28 130 32 177 32 323 -1
434 -175 839 -489 1142 -121 116 -214 184 -364 264 -167 89 -345 145 -545 172
-58 8 -339 12 -346 6z"/>
</g>
</svg>
